<?xml version="1.0" encoding="UTF-8" standalone="no"?>
<svg
   xmlns:dc="http://purl.org/dc/elements/1.1/"
   xmlns:cc="http://creativecommons.org/ns#"
   xmlns:rdf="http://www.w3.org/1999/02/22-rdf-syntax-ns#"
   xmlns:svg="http://www.w3.org/2000/svg"
   xmlns="http://www.w3.org/2000/svg"
   xmlns:sodipodi="http://sodipodi.sourceforge.net/DTD/sodipodi-0.dtd"
   xmlns:inkscape="http://www.inkscape.org/namespaces/inkscape"
   version="1.1"
   id="svg2"
   xml:space="preserve"
   width="943.33331"
   height="146.06667"
   viewBox="0 0 943.33331 146.06667"
   sodipodi:docname="Schnitzhofer_2015_CMYK.eps"><metadata
     id="metadata8"><rdf:RDF><cc:Work
         rdf:about=""><dc:format>image/svg+xml</dc:format><dc:type
           rdf:resource="http://purl.org/dc/dcmitype/StillImage" /></cc:Work></rdf:RDF></metadata><defs
     id="defs6" /><sodipodi:namedview
     pagecolor="#ffffff"
     bordercolor="#666666"
     borderopacity="1"
     objecttolerance="10"
     gridtolerance="10"
     guidetolerance="10"
     inkscape:pageopacity="0"
     inkscape:pageshadow="2"
     inkscape:window-width="640"
     inkscape:window-height="480"
     id="namedview4" /><g
     id="g10"
     inkscape:groupmode="layer"
     inkscape:label="ink_ext_XXXXXX"
     transform="matrix(1.3333333,0,0,-1.3333333,0,146.06667)"><g
       id="g12"
       transform="scale(0.1)"><path
         d="m 2975.09,361.105 c 0,132.661 0,263.473 0,394.954 -44.65,0 -87.92,0 -131.68,0 0,-132.266 0,-263.102 0,-394.954 44.03,0 86.78,0 131.68,0 z m 327.54,-0.054 c 0,103.191 0,204.359 0,307.64 49.78,0 96.92,0 143.89,0 0,30.657 0,59.114 0,87.426 -142.54,0 -283.24,0 -424.54,0 0,-29.851 0,-58.316 0,-89.476 49.15,0 96.88,0 146.3,0 0,-103.352 0,-204 0,-305.59 44.55,0 87.33,0 134.35,0 z m 1741.25,0.703 c 45.61,0 88.91,0 134.69,0 0,50.891 0,100.141 0,151.207 77.18,0 151.84,0 227.47,0 0,30.258 0,58.594 0,89.422 -77.15,0 -152.39,0 -226.98,0 0,22.941 0,43.34 0,66.183 82.65,0 163.77,0 244.71,0 0,30.907 0,59.282 0,87.329 -127.75,0 -253.47,0 -379.89,0 0,-131.942 0,-262.293 0,-394.141 z m -1404.57,87.625 c 4,5.906 4.92,8 6.46,9.418 74.05,68.258 148.22,136.394 222.17,204.773 6.32,5.848 15.42,12.891 16.01,19.977 2.01,24.016 0.76,48.301 0.76,72.078 -139.9,0 -276.67,0 -412.45,0 0,-30.398 0,-58.906 0,-89.156 75.65,0 149.42,0 226.22,0 -4.49,-5.219 -6.52,-8.114 -9.07,-10.457 -73.52,-67.766 -147.17,-135.403 -220.54,-203.328 -6.24,-5.778 -14.67,-13.133 -15.27,-20.325 -1.95,-23.312 -0.73,-46.89 -0.73,-70.472 143.81,0 284.99,0 426.5,0 0,29.695 0,57.586 0,87.492 -79.42,0 -157.69,0 -240.06,0 z m 1962.68,-1.059 c 0,24.785 0,45.254 0,68.453 83.03,0 164.88,0 246.34,0 0,29.735 0,56.668 0,85.469 -83.27,0 -164.58,0 -245.88,0 0,23.051 0,44.117 0,67.66 88.85,0 176.08,0 263.7,0 0,30.317 0,58.063 0,85.836 -133.93,0 -266.24,0 -397.99,0 0,-132.66 0,-263.57 0,-394.402 133.5,0 265.28,0 398.19,0 0,28.965 0,56.676 0,86.984 -88.54,0 -175.71,0 -264.36,0 z m -1529.14,74.961 c 67.4,0 132.88,0 200.15,0 0,-54.773 0,-107.929 0,-161.797 45.12,0 88.43,0 132.23,0 0,132.329 0,263.246 0,394.422 -44.79,0 -88.11,0 -134,0 0,-47.816 0,-94.086 0,-139.375 -67.59,0 -132.55,0 -199.38,0 0,47.328 0,93.059 0,139.547 -45.22,0 -88.53,0 -132.23,0 0,-132.348 0,-263.285 0,-394.383 44.74,0 88.05,0 133.23,0 0,54.715 0,107.852 0,161.586 z M 1879.3,615.969 c 0,48.344 0,94.066 0,139.898 -45.25,0 -88.56,0 -131.62,0 0,-132.562 0,-263.5 0,-393.961 44.97,0 88.29,0 133.45,0 0,54.938 0,108.074 0,161.16 67.4,0 132.88,0 200.14,0 0,-54.996 0,-108.148 0,-161.355 45.15,0 88.46,0 131.61,0 0,132.543 0,263.461 0,393.977 -45.03,0 -88.35,0 -133.43,0 0,-47.508 0,-93.243 0,-139.719 -66.77,0 -131.72,0 -200.15,0 z m -187.71,-13.957 c -7.52,77.312 -69.57,144.769 -143.29,159.523 -61.64,12.336 -123.67,13.625 -185.47,3.961 -56.57,-8.844 -106.69,-32.016 -139.72,-81.328 -29.11,-43.449 -36.81,-93.145 -33.22,-144.301 6.13,-87.285 47.55,-154.125 138.34,-179.586 69.73,-19.554 140.38,-18.59 211,-5.07 43.02,8.234 81.73,25.652 111.49,58.988 25.17,28.188 37.3,61.918 42.63,101.188 -47.54,0 -92,0.324 -136.43,-0.453 -4.97,-0.09 -13.06,-5.559 -14.24,-9.993 -12.59,-47.007 -48.13,-64.937 -91.18,-67.441 -56.92,-3.312 -106.16,17.379 -114.76,87.004 -2.76,22.375 -2.56,45.637 0.07,68.047 6.37,54.144 36.67,82.297 97.04,87.621 38.31,3.383 89.5,-10.027 104.61,-63.231 3.47,-12.195 10.36,-15.918 22.52,-15.16 15.53,0.965 31.16,0.231 46.75,0.231 27.87,0 55.75,0 83.86,0 z M 6055.14,489.477 c 46.89,0 91.27,0.878 135.58,-0.422 18.31,-0.535 29.31,-14.223 32.92,-31.383 3.16,-15.078 3.46,-30.77 4.84,-46.203 1.48,-16.582 2.75,-33.188 4.15,-50.281 51.61,0 99.48,0 143.5,0 -4.68,30.05 -9.5,59.539 -13.81,89.101 -5.64,38.711 0.31,82.176 -45.79,103.356 11.53,7.929 22.26,13.425 30.65,21.394 32.62,31 31.84,70.203 22.69,109.527 -8.78,37.766 -37.04,57.735 -72.7,67.286 -14.12,3.777 -29.21,5.324 -43.87,5.386 -103.95,0.446 -207.9,0.266 -311.85,0.188 -6.39,-0.004 -12.78,-0.863 -18.91,-1.305 0,-132.742 0,-263.703 0,-394.215 44.97,0 88.29,0 132.6,0 0,42.551 0,83.305 0,127.571 z m -4910.9,151.324 c -5.96,54.73 -35.05,88.289 -81.94,107.008 -71.589,28.574 -146.714,26.914 -221.206,19.754 -30.02,-2.887 -60.688,-13.958 -87.899,-27.602 -43.144,-21.633 -61.347,-60.52 -57.906,-108.621 3.293,-46 29.762,-79.5 76.66,-92.594 30.399,-8.484 62.09,-12.441 93.293,-17.902 36.309,-6.352 72.875,-11.34 109.004,-18.551 14.016,-2.797 29.204,-7.113 29.174,-27.43 -0.02,-19.636 -10.506,-29.664 -27.713,-34.968 -4.203,-1.297 -8.484,-3.239 -12.754,-3.297 -21.504,-0.285 -43.277,-2.133 -64.445,0.574 -22.328,2.855 -43.227,10.836 -48.848,37.785 -0.793,3.816 -8.324,8.816 -12.797,8.875 -48.101,0.641 -96.211,0.398 -145.078,0.398 -0.668,-6.507 -1.527,-10.785 -1.43,-15.039 0.106,-4.386 0.864,-8.816 1.817,-13.121 11.789,-53.277 49.258,-80.933 98.183,-95.148 67.29,-19.551 136.735,-17.68 205.204,-11.641 35.111,3.098 70.871,14.992 103.191,29.789 45.49,20.828 64.5,61.875 62.61,111.016 -2.02,52.738 -33,83.394 -81.56,98.418 -10.53,3.258 -21.21,6.43 -32.05,8.254 -61.082,10.254 -122.383,19.316 -183.223,30.836 -9.828,1.859 -25.336,14.633 -24.773,21.215 0.91,10.675 10.918,25.992 20.648,29.523 34.176,12.398 70.047,12.461 103.813,-2.543 9.703,-4.312 15.953,-16.176 24.14,-24.215 4.083,-4.011 8.907,-10.23 13.485,-10.304 46.68,-0.762 93.38,-0.469 142.4,-0.469 z M 4722.33,341.066 c 0.4,1.278 0.79,2.551 1.19,3.825 26.49,2.195 53.2,2.945 79.43,6.851 74.98,11.164 138.92,41.957 166.36,117.461 12.25,33.688 16.16,72.332 15.21,108.504 -2.2,84.371 -45.87,148.859 -130.34,175.531 -80.2,25.325 -161.72,24.442 -242.71,5.02 -61.54,-14.758 -110.7,-49.449 -131.33,-110.863 -11.46,-34.137 -15.74,-72.5 -14.62,-108.692 2.61,-83.742 45.52,-148.387 129.41,-173.562 41.17,-12.352 84.86,-16.313 127.4,-24.075 z m -1961.38,19.051 c 0,133.946 0,264.891 0,395.61 -43.49,0 -85.33,0 -129.46,0 0,-81.235 0,-160.727 0,-244.493 -59.32,79.832 -115.67,155.793 -172.29,231.555 -4.17,5.574 -10.2,13.738 -15.51,13.852 -49.4,1.066 -98.83,0.632 -147.94,0.632 0,-133.98 0,-264.949 0,-395.308 43.53,0 85.37,0 129.49,0 0,81.367 0,160.883 0,245.523 61.44,-80.945 119.4,-157.554 177.82,-233.812 4.44,-5.797 12.06,-12.813 18.36,-12.965 45.92,-1.102 91.88,-0.594 139.53,-0.594 z M 3539.96,0 C 2423.17,0 1306.38,-0.0117188 189.594,0 80.7109,0 0.851563,78.0898 0.535156,187.461 -0.164063,427.301 -0.191406,667.145 0.53125,906.984 0.847656,1012.59 75.6289,1089.08 181.027,1094.63 c 7.407,0.39 14.832,0.57 22.25,0.57 2220.953,0.03 4441.913,0 6662.863,0.29 53.6,0.01 103.33,-8.94 144.86,-45.45 41.18,-36.2 63.72,-81.602 63.79,-136.7 0.29,-244.297 0.38,-488.598 0.02,-732.895 C 7074.66,80.6914 6992.64,0.03125 6892.56,0.03125 5775.03,0 4657.49,0.0117188 3539.96,0"
         style="fill:#1b2862;fill-opacity:1;fill-rule:nonzero;stroke:none"
         id="path14" /><path
         d="m 2760.95,360.117 c -47.65,0 -93.61,-0.508 -139.53,0.594 -6.3,0.152 -13.92,7.168 -18.36,12.965 -58.42,76.258 -116.38,152.867 -177.82,233.812 0,-84.64 0,-164.156 0,-245.523 -44.12,0 -85.96,0 -129.49,0 0,130.359 0,261.328 0,395.308 49.11,0 98.54,0.434 147.94,-0.632 5.31,-0.114 11.34,-8.278 15.51,-13.852 56.62,-75.762 112.97,-151.723 172.29,-231.555 0,83.766 0,163.258 0,244.493 44.13,0 85.97,0 129.46,0 0,-130.719 0,-261.664 0,-395.61"
         style="fill:#ffffff;fill-opacity:1;fill-rule:nonzero;stroke:none"
         id="path16" /><path
         d="m 4842.68,558.941 c -1.55,84.352 -43.51,120.532 -117.75,120.887 -70.57,0.332 -116.53,-33.402 -116.99,-121.832 -0.42,-81.437 42.54,-120.891 117.62,-120.629 74.91,0.262 114.58,38.528 117.12,121.574 z M 4722.33,341.066 c -42.54,7.762 -86.23,11.723 -127.4,24.075 -83.89,25.175 -126.8,89.82 -129.41,173.562 -1.12,36.192 3.16,74.555 14.62,108.692 20.63,61.414 69.79,96.105 131.33,110.863 80.99,19.422 162.51,20.305 242.71,-5.02 84.47,-26.672 128.14,-91.16 130.34,-175.531 0.95,-36.172 -2.96,-74.816 -15.21,-108.504 -27.44,-75.504 -91.38,-106.297 -166.36,-117.461 -26.23,-3.906 -52.94,-4.656 -79.43,-6.851 -0.4,-1.274 -0.79,-2.547 -1.19,-3.825"
         style="fill:#ffffff;fill-opacity:1;fill-rule:nonzero;stroke:none"
         id="path18" /><path
         d="m 1144.24,640.801 c -49.02,0 -95.72,-0.293 -142.4,0.469 -4.578,0.074 -9.402,6.293 -13.485,10.304 -8.187,8.039 -14.437,19.903 -24.14,24.215 -33.766,15.004 -69.637,14.941 -103.813,2.543 -9.73,-3.531 -19.738,-18.848 -20.648,-29.523 -0.563,-6.582 14.945,-19.356 24.773,-21.215 60.84,-11.52 122.141,-20.582 183.223,-30.836 10.84,-1.824 21.52,-4.996 32.05,-8.254 48.56,-15.024 79.54,-45.68 81.56,-98.418 1.89,-49.141 -17.12,-90.188 -62.61,-111.016 -32.32,-14.797 -68.08,-26.691 -103.191,-29.789 -68.469,-6.039 -137.914,-7.91 -205.204,11.641 -48.925,14.215 -86.394,41.871 -98.183,95.148 -0.953,4.305 -1.711,8.735 -1.817,13.121 -0.097,4.254 0.762,8.532 1.43,15.039 48.867,0 96.977,0.243 145.078,-0.398 4.473,-0.059 12.004,-5.059 12.797,-8.875 5.621,-26.949 26.52,-34.93 48.848,-37.785 21.168,-2.707 42.941,-0.859 64.445,-0.574 4.27,0.058 8.551,2 12.754,3.297 17.207,5.304 27.693,15.332 27.713,34.968 0.03,20.317 -15.158,24.633 -29.174,27.43 -36.129,7.211 -72.695,12.199 -109.004,18.551 -31.203,5.461 -62.894,9.418 -93.293,17.902 -46.898,13.094 -73.367,46.594 -76.66,92.594 -3.441,48.101 14.762,86.988 57.906,108.621 27.211,13.644 57.879,24.715 87.899,27.602 74.492,7.16 149.617,8.82 221.206,-19.754 46.89,-18.719 75.98,-52.278 81.94,-107.008"
         style="fill:#ffffff;fill-opacity:1;fill-rule:nonzero;stroke:none"
         id="path20" /><path
         d="m 6055.87,583.391 c 44.87,0 87.63,-0.332 130.38,0.129 23.7,0.253 39.78,13.691 42.39,33.695 3.45,26.496 -6.35,44.969 -34.1,47.078 -45.84,3.48 -92.14,0.945 -138.67,0.945 0,-26.961 0,-52.738 0,-81.847 z m -0.73,-93.914 c 0,-44.266 0,-85.02 0,-127.571 -44.31,0 -87.63,0 -132.6,0 0,130.512 0,261.473 0,394.215 6.13,0.442 12.52,1.301 18.91,1.305 103.95,0.078 207.9,0.258 311.85,-0.188 14.66,-0.062 29.75,-1.609 43.87,-5.386 35.66,-9.551 63.92,-29.52 72.7,-67.286 9.15,-39.324 9.93,-78.527 -22.69,-109.527 -8.39,-7.969 -19.12,-13.465 -30.65,-21.394 46.1,-21.18 40.15,-64.645 45.79,-103.356 4.31,-29.562 9.13,-59.051 13.81,-89.101 -44.02,0 -91.89,0 -143.5,0 -1.4,17.093 -2.67,33.699 -4.15,50.281 -1.38,15.433 -1.68,31.125 -4.84,46.203 -3.61,17.16 -14.61,30.848 -32.92,31.383 -44.31,1.3 -88.69,0.422 -135.58,0.422"
         style="fill:#ffffff;fill-opacity:1;fill-rule:nonzero;stroke:none"
         id="path22" /><path
         d="m 1691.59,602.012 c -28.11,0 -55.99,0 -83.86,0 -15.59,0 -31.22,0.734 -46.75,-0.231 -12.16,-0.758 -19.05,2.965 -22.52,15.16 -15.11,53.204 -66.3,66.614 -104.61,63.231 -60.37,-5.324 -90.67,-33.477 -97.04,-87.621 -2.63,-22.41 -2.83,-45.672 -0.07,-68.047 8.6,-69.625 57.84,-90.316 114.76,-87.004 43.05,2.504 78.59,20.434 91.18,67.441 1.18,4.434 9.27,9.903 14.24,9.993 44.43,0.777 88.89,0.453 136.43,0.453 -5.33,-39.27 -17.46,-73 -42.63,-101.188 -29.76,-33.336 -68.47,-50.754 -111.49,-58.988 -70.62,-13.52 -141.27,-14.484 -211,5.07 -90.79,25.461 -132.21,92.301 -138.34,179.586 -3.59,51.156 4.11,100.852 33.22,144.301 33.03,49.312 83.15,72.484 139.72,81.328 61.8,9.664 123.83,8.375 185.47,-3.961 73.72,-14.754 135.77,-82.211 143.29,-159.523"
         style="fill:#ffffff;fill-opacity:1;fill-rule:nonzero;stroke:none"
         id="path24" /><path
         d="m 1879.3,615.969 c 68.43,0 133.38,0 200.15,0 0,46.476 0,92.211 0,139.719 45.08,0 88.4,0 133.43,0 0,-130.516 0,-261.434 0,-393.977 -43.15,0 -86.46,0 -131.61,0 0,53.207 0,106.359 0,161.355 -67.26,0 -132.74,0 -200.14,0 0,-53.086 0,-106.222 0,-161.16 -45.16,0 -88.48,0 -133.45,0 0,130.461 0,261.399 0,393.961 43.06,0 86.37,0 131.62,0 0,-45.832 0,-91.554 0,-139.898"
         style="fill:#ffffff;fill-opacity:1;fill-rule:nonzero;stroke:none"
         id="path26" /><path
         d="m 4072.85,523.281 c 0,-53.734 0,-106.871 0,-161.586 -45.18,0 -88.49,0 -133.23,0 0,131.098 0,262.035 0,394.383 43.7,0 87.01,0 132.23,0 0,-46.488 0,-92.219 0,-139.547 66.83,0 131.79,0 199.38,0 0,45.289 0,91.559 0,139.375 45.89,0 89.21,0 134,0 0,-131.176 0,-262.093 0,-394.422 -43.8,0 -87.11,0 -132.23,0 0,53.868 0,107.024 0,161.797 -67.27,0 -132.75,0 -200.15,0"
         style="fill:#ffffff;fill-opacity:1;fill-rule:nonzero;stroke:none"
         id="path28" /><path
         d="m 5601.99,448.32 c 88.65,0 175.82,0 264.36,0 0,-30.308 0,-58.019 0,-86.984 -132.91,0 -264.69,0 -398.19,0 0,130.832 0,261.742 0,394.402 131.75,0 264.06,0 397.99,0 0,-27.773 0,-55.519 0,-85.836 -87.62,0 -174.85,0 -263.7,0 0,-23.543 0,-44.609 0,-67.66 81.3,0 162.61,0 245.88,0 0,-28.801 0,-55.734 0,-85.469 -81.46,0 -163.31,0 -246.34,0 0,-23.199 0,-43.668 0,-68.453"
         style="fill:#ffffff;fill-opacity:1;fill-rule:nonzero;stroke:none"
         id="path30" /><path
         d="m 3639.31,449.379 c 82.37,0 160.64,0 240.06,0 0,-29.906 0,-57.797 0,-87.492 -141.51,0 -282.69,0 -426.5,0 0,23.582 -1.22,47.16 0.73,70.472 0.6,7.192 9.03,14.547 15.27,20.325 73.37,67.925 147.02,135.562 220.54,203.328 2.55,2.343 4.58,5.238 9.07,10.457 -76.8,0 -150.57,0 -226.22,0 0,30.25 0,58.758 0,89.156 135.78,0 272.55,0 412.45,0 0,-23.777 1.25,-48.062 -0.76,-72.078 -0.59,-7.086 -9.69,-14.129 -16.01,-19.977 -73.95,-68.379 -148.12,-136.515 -222.17,-204.773 -1.54,-1.418 -2.46,-3.512 -6.46,-9.418"
         style="fill:#ffffff;fill-opacity:1;fill-rule:nonzero;stroke:none"
         id="path32" /><path
         d="m 5043.88,361.754 c 0,131.848 0,262.199 0,394.141 126.42,0 252.14,0 379.89,0 0,-28.047 0,-56.422 0,-87.329 -80.94,0 -162.06,0 -244.71,0 0,-22.843 0,-43.242 0,-66.183 74.59,0 149.83,0 226.98,0 0,-30.828 0,-59.164 0,-89.422 -75.63,0 -150.29,0 -227.47,0 0,-51.066 0,-100.316 0,-151.207 -45.78,0 -89.08,0 -134.69,0"
         style="fill:#ffffff;fill-opacity:1;fill-rule:nonzero;stroke:none"
         id="path34" /><path
         d="m 3302.63,361.051 c -47.02,0 -89.8,0 -134.35,0 0,101.59 0,202.238 0,305.59 -49.42,0 -97.15,0 -146.3,0 0,31.16 0,59.625 0,89.476 141.3,0 282,0 424.54,0 0,-28.312 0,-56.769 0,-87.426 -46.97,0 -94.11,0 -143.89,0 0,-103.281 0,-204.449 0,-307.64"
         style="fill:#ffffff;fill-opacity:1;fill-rule:nonzero;stroke:none"
         id="path36" /><path
         d="m 2975.09,361.105 c -44.9,0 -87.65,0 -131.68,0 0,131.852 0,262.688 0,394.954 43.76,0 87.03,0 131.68,0 0,-131.481 0,-262.293 0,-394.954"
         style="fill:#ffffff;fill-opacity:1;fill-rule:nonzero;stroke:none"
         id="path38" /><path
         d="m 4842.68,558.941 c -2.54,-83.046 -42.21,-121.312 -117.12,-121.574 -75.08,-0.262 -118.04,39.192 -117.62,120.629 0.46,88.43 46.42,122.164 116.99,121.832 74.24,-0.355 116.2,-36.535 117.75,-120.887"
         style="fill:#1b2862;fill-opacity:1;fill-rule:nonzero;stroke:none"
         id="path40" /><path
         d="m 6055.87,583.391 c 0,29.109 0,54.886 0,81.847 46.53,0 92.83,2.535 138.67,-0.945 27.75,-2.109 37.55,-20.582 34.1,-47.078 -2.61,-20.004 -18.69,-33.442 -42.39,-33.695 -42.75,-0.461 -85.51,-0.129 -130.38,-0.129"
         style="fill:#1b2862;fill-opacity:1;fill-rule:nonzero;stroke:none"
         id="path42" /></g></g></svg>
